- 
http://www.Speed.Cd      fast  and The Hottest Private Tracker on the net

   signup is open now

Please Seed back to make the speed Faster!!!

------------------nfo--------------------------
-UUUUUUUU     UUUUUUUU           SSSSSSSSSSSSSSS         MMMMMMMM               MMMMMMMM     
U::::::U     U::::::U         SS:::::::::::::::S        M:::::::M             M:::::::M     
U::::::U     U::::::U        S:::::SSSSSS::::::S        M::::::::M           M::::::::M     
UU:::::U     U:::::UU        S:::::S     SSSSSSS        M:::::::::M         M:::::::::M     
 U:::::U     U:::::U         S:::::S                    M::::::::::M       M::::::::::M     
 U:::::D     D:::::U         S:::::S                    M:::::::::::M     M:::::::::::M     
 U:::::D     D:::::U          S::::SSSS                 M:::::::M::::M   M::::M:::::::M     
 U:::::D     D:::::U           SS::::::SSSSS            M::::::M M::::M M::::M M::::::M     
 U:::::D     D:::::U             SSS::::::::SS          M::::::M  M::::M::::M  M::::::M     
 U:::::D     D:::::U                SSSSSS::::S         M::::::M   M:::::::M   M::::::M     
 U:::::D     D:::::U                     S:::::S        M::::::M    M:::::M    M::::::M     
 U::::::U   U::::::U                     S:::::S        M::::::M     MMMMM     M::::::M     
 U:::::::UUU:::::::U         SSSSSSS     S:::::S        M::::::M               M::::::M     
  UU:::::::::::::UU   ...... S::::::SSSSSS:::::S ...... M::::::M               M::::::M     
    UU:::::::::UU     .::::. S:::::::::::::::SS  .::::. M::::::M               M::::::M     
      UUUUUUUUU       ......  SSSSSSSSSSSSSSS    ...... MMMMMMMM               MMMMMMMM   



                Twilight Breaking Dawn Part 1 2011 TS XViD READNFO v2 - U.S.M


SOURCES:

TNZ 720p
FYA
subs ...myself

IMDB:

www.imdb.com/title/tt1324999/

Video
ID                               : 0
Format                           : MPEG-4 Visual
Format profile                   : Advanced Simple@L5
Format settings, BVOP            : 2
Format settings, QPel            : No
Format settings, GMC             : No warppoints
Format settings, Matrix          : Default (H.263)
Muxing mode                      : Packed bitstream
Codec ID                         : XVID
Codec ID/Hint                    : XviD
Duration                         : 1h 46mn
Bit rate                         : 1 714 Kbps
Width                            : 720 pixels
Height                           : 304 pixels
Display aspect ratio             : 2.35:1
Frame rate                       : 25.000 fps
Color space                      : YUV
Chroma subsampling               : 4:2:0
Bit depth                        : 8 bits
Scan type                        : Progressive
Compression mode                 : Lossy
Bits/(Pixel*Frame)               : 0.313
Stream size                      : 1.28 GiB (93%)
Writing library                  : XviD 64

Audio
ID                               : 1
Format                           : MPEG Audio
Format version                   : Version 1
Format profile                   : Layer 3
Codec ID                         : 55
Codec ID/Hint                    : MP3
Duration                         : 1h 46mn
Bit rate mode                    : Constant
Bit rate                         : 128 Kbps
Channel(s)                       : 2 channels
Sampling rate                    : 44.1 KHz
Compression mode                 : Lossy
Stream size                      : 97.9 MiB (7%)
Alignment                        : Split accross interleaves
Interleave, duration             : 40 ms (1.00 video frame)
Interleave, preload duration     : 500 ms
Writing library                  : LAME3.98.4☺▼


WORKDONE:

Right ...late with this one,but only got one part of hands so ....Anyways for this we used the 720p video,but to be honest
did think it was that great ...good,but nothing special and my reason is it contained shitloads of noise and i mean loads.
So made a script in megui and inc heavy noise reduction and after dropping that into vdub and resizing ....still wasn't happy.
So also used the HQ smoother aswell ( place before the resize,for better results ),then i also tweaked the contrast and brightness,lowered
the chroma and slight tweak on the rgb colours aswell before adding some sharpness back.
Now also on the tnz video the subs are not in english ...so scrolled through my v1 and made a note of all the subs,14 or 15 lines and made
my own srt pack and altered times to match this video,then hardcoded them.
Audio was already synced and sounded nice,but opted to use a liss hiss removal and also messed with the EQ,all done in goldwave and then finally
remuxed it to our encode.

Check sample for Q.

SCREENIES:

[IMG]http://i.imgur.com/jyecH.png[/IMG]
[IMG]http://i.imgur.com/uleXM.png[/IMG]
[IMG]http://i.imgur.com/C1osx.png[/IMG]
[IMG]http://i.imgur.com/YBE5V.png[/IMG]
[IMG]http://i.imgur.com/8UGYV.png[/IMG]
[IMG]http://i.imgur.com/7SIPz.png[/IMG]
[IMG]http://i.imgur.com/rKR5N.png[/IMG]